HIERARCHY
ROOT SimulationBone
{
	OFFSET 0.000000 0.000000 0.000000
	CHANNELS 6 Xposition Yposition Zposition Zrotation Yrotation Xrotation 
	JOINT Hips
	{
		OFFSET 0.000000 0.000000 0.000000
		CHANNELS 6 Xposition Yposition Zposition Zrotation Yrotation Xrotation 
		JOINT RightUpLeg
		{
			OFFSET 0.103459 1.857828 10.548492
			CHANNELS 3 Zrotation Yrotation Xrotation
			JOINT RightLeg
			{
				OFFSET 43.500004 -0.000011 -0.000004
				CHANNELS 3 Zrotation Yrotation Xrotation
				JOINT RightFoot
				{
					OFFSET 42.372200 0.000004 -0.000018
					CHANNELS 3 Zrotation Yrotation Xrotation
					JOINT RightToe
					{
						OFFSET 17.299999 -0.000001 -0.000005
						CHANNELS 3 Zrotation Yrotation Xrotation
						End Site
						{
							OFFSET 0.000000 0.000000 0.000000
						}
					}
				}
			}
		}
		JOINT LeftUpLeg
		{
			OFFSET 0.103456 1.857824 -10.548500
			CHANNELS 3 Zrotation Yrotation Xrotation
			JOINT LeftLeg
			{
				OFFSET 43.500046 -0.000004 0.000013
				CHANNELS 3 Zrotation Yrotation Xrotation
				JOINT LeftFoot
				{
					OFFSET 42.372269 -0.000015 0.000020
					CHANNELS 3 Zrotation Yrotation Xrotation
					JOINT LeftToe
					{
						OFFSET 17.299974 -0.000010 -0.000002
						CHANNELS 3 Zrotation Yrotation Xrotation
						End Site
						{
							OFFSET 0.000000 0.000000 0.000000
						}
					}
				}
			}
		}
		JOINT Spine
		{
			OFFSET 6.901967 -2.603733 0.000003
			CHANNELS 3 Zrotation Yrotation Xrotation
			JOINT Spine1
			{
				OFFSET 12.588101 0.000006 -0.000014
				CHANNELS 3 Zrotation Yrotation Xrotation
				JOINT Spine2
				{
					OFFSET 12.343203 -0.000006 0.000010
					CHANNELS 3 Zrotation Yrotation Xrotation
					JOINT Neck
					{
						OFFSET 25.832886 -0.000004 0.000009
						CHANNELS 3 Zrotation Yrotation Xrotation
						JOINT Head
						{
							OFFSET 11.766619 0.000000 -0.000008
							CHANNELS 3 Zrotation Yrotation Xrotation
							End Site
							{
								OFFSET 0.000000 0.000000 0.000000
							}
						}
					}
					JOINT RightShoulder
					{
						OFFSET 19.745895 -1.480373 6.000121
						CHANNELS 3 Zrotation Yrotation Xrotation
						JOINT RightArm
						{
							OFFSET 11.284116 -0.000025 -0.000019
							CHANNELS 3 Zrotation Yrotation Xrotation
							JOINT RightForeArm
							{
								OFFSET 33.000046 0.000010 0.000041
								CHANNELS 3 Zrotation Yrotation Xrotation
								JOINT RightHand
								{
									OFFSET 25.200005 0.000005 0.000001
									CHANNELS 3 Zrotation Yrotation Xrotation
									End Site
									{
										OFFSET 0.000000 0.000000 0.000000
									}
								}
							}
						}
					}
					JOINT LeftShoulder
					{
						OFFSET 19.746092 -1.480366 -6.000068
						CHANNELS 3 Zrotation Yrotation Xrotation
						JOINT LeftArm
						{
							OFFSET 11.284133 -0.000025 -0.000013
							CHANNELS 3 Zrotation Yrotation Xrotation
							JOINT LeftForeArm
							{
								OFFSET 33.000114 0.000025 -0.000011
								CHANNELS 3 Zrotation Yrotation Xrotation
								JOINT LeftHand
								{
									OFFSET 25.199759 0.000128 0.000418
									CHANNELS 3 Zrotation Yrotation Xrotation
									End Site
									{
										OFFSET 0.000000 0.000000 0.000000
									}
								}
							}
						}
					}
				}
			}
		}
	}
}
MOTION
Frames: 16
Frame Time: 0.016667
3.058746 0.000000 -243.267137 180.000000 -50.781397 180.000000 -4.239239 90.749321 0.486271 84.879533 -1.204294 179.566584 163.979906 4.942790 168.258500 -23.261514 3.845915 -15.028778 86.535156 9.396108 -4.457529 21.454560 0.003110 0.000018 145.105292 8.290204 -176.817970 -64.874973 0.580833 9.731650 72.784762 -4.580070 7.604383 21.454548 -0.003090 -0.000002 7.150109 -1.458705 -0.859588 4.311063 -2.884658 -1.772958 3.992696 -2.895442 -1.755504 8.863262 -9.559534 6.356747 -5.967535 2.404228 4.597799 173.963989 -72.888319 4.847043 5.792263 52.783652 11.880755 -44.203566 -14.328501 1.557945 7.117393 -12.370088 -2.346445 -162.246087 79.197308 19.564955 -16.240584 -58.431112 -41.349537 -29.745978 11.463108 -0.996719 13.956652 4.643138 12.477589 
2.796954 0.000000 -242.697628 180.000000 -50.554597 180.000000 -4.287923 90.720676 0.527314 84.788136 -1.184314 179.411413 164.246778 4.986054 168.107302 -23.329547 3.884088 -15.171535 86.924441 9.468141 -4.610660 21.454558 0.003111 0.000017 144.341450 8.015892 -176.735137 -63.125192 0.940739 9.998192 72.867614 -4.795263 7.579972 21.454549 -0.003090 -0.000002 7.144034 -1.450084 -0.926312 4.300416 -2.865052 -1.905945 3.982071 -2.876641 -1.888611 8.823574 -9.552394 6.372328 -6.075734 2.393563 4.612133 173.740723 -73.021401 5.072327 5.652845 52.489706 11.849292 -44.830330 -14.435563 1.582774 6.834889 -12.168808 -2.222302 -162.886831 79.199283 18.912715 -16.256646 -58.919827 -41.321124 -30.618064 12.046258 -1.051290 13.269445 4.287025 11.616055 
2.507840 0.000000 -242.138531 180.000000 -50.363557 180.000000 -4.345830 90.690613 0.543199 84.680392 -1.197203 179.243464 164.530637 5.078906 168.008146 -23.325279 3.923225 -15.329695 87.293341 9.552434 -4.760205 21.454558 0.003110 0.000016 143.668015 7.807106 -176.622217 -61.163790 1.342775 9.981006 72.987947 -4.783156 7.644038 21.454550 -0.003091 -0.000001 7.138341 -1.449136 -0.985851 4.290476 -2.861052 -2.024864 3.972161 -2.873359 -2.007551 8.687886 -9.516583 6.391243 -6.072405 2.406103 4.619965 173.552006 -73.122505 5.262939 5.498318 52.127788 11.843005 -45.485944 -14.529281 1.608805 6.495852 -11.651846 -1.731133 -163.261941 79.154974 18.531030 -16.375931 -59.462136 -41.269484 -31.479344 12.650321 -1.107480 12.582442 4.021831 10.584703 
2.191019 0.000000 -241.589822 180.000000 -50.208798 180.000000 -4.416812 90.662166 0.538127 84.538463 -1.227141 179.080153 164.801557 5.209471 167.974348 -23.265538 3.973788 -15.500507 87.635464 9.645624 -4.912568 21.454560 0.003110 0.000018 143.041972 7.630674 -176.488867 -59.056736 1.790952 9.757320 73.105666 -4.645874 7.638547 21.454549 -0.003091 -0.000000 7.125655 -1.450645 -1.037563 4.266384 -2.862389 -2.128058 3.948109 -2.875316 -2.110730 8.505274 -9.443299 6.407810 -5.966078 2.440694 4.621870 173.280859 -73.200622 5.538892 5.385579 51.734178 11.799045 -46.163216 -14.532641 1.629857 6.131991 -11.067660 -0.918829 -163.280055 79.074801 18.513084 -16.561312 -60.075814 -41.224244 -32.332952 13.251143 -1.163552 12.081458 3.837767 9.712505 
1.847147 0.000000 -241.051309 180.000000 -50.091559 180.000000 -4.492377 90.629677 0.519706 84.373224 -1.281749 178.939165 165.063324 5.372096 168.053936 -23.180438 4.001856 -15.700972 87.963383 9.759877 -5.066049 21.454562 0.003110 0.000020 142.491774 7.488005 -176.246242 -56.817235 2.216769 9.396228 73.196124 -4.455023 7.475306 21.454550 -0.003092 0.000000 7.102411 -1.454986 -1.086395 4.221162 -2.869733 -2.225331 3.902917 -2.883243 -2.207955 8.401142 -9.363181 6.397532 -5.846564 2.465161 4.607855 172.930022 -73.266383 5.896987 5.326380 51.368633 11.754377 -46.813214 -14.524648 1.648494 5.753079 -10.413066 -0.046044 -163.257078 79.004533 18.537000 -16.732793 -60.749613 -41.166788 -33.142611 13.785921 -1.215533 11.684242 3.686056 8.980612 
1.477505 0.000000 -240.522691 180.000000 -50.012325 180.000000 -4.564501 90.588837 0.494557 84.199426 -1.365766 178.833657 165.325410 5.557056 168.263879 -23.095048 3.982533 -15.933674 88.288956 9.897868 -5.216816 21.454558 0.003110 0.000019 142.062488 7.382496 -175.798869 -54.434031 2.544635 8.959471 73.235689 -4.259972 7.130357 21.454554 -0.003094 0.000000 7.067906 -1.462345 -1.137141 4.153552 -2.883325 -2.326243 3.835312 -2.897441 -2.308792 8.472163 -9.306506 6.341104 -5.795801 2.450400 4.569234 172.541220 -73.330692 6.293974 5.313220 51.091458 11.733617 -47.389977 -14.580081 1.669349 5.367802 -9.677865 0.651808 -163.483359 78.986463 18.306804 -16.831937 -61.463160 -41.077473 -33.869548 14.197227 -1.258071 11.280236 3.579104 8.285499 
1.083721 0.000000 -240.003995 180.000000 -49.971555 180.000000 -4.639943 90.549431 0.460821 84.018723 -1.449557 178.754365 165.584631 5.733897 168.461807 -23.002013 3.971675 -16.123276 88.602381 10.008647 -5.361522 21.454555 0.003110 0.000018 141.795300 7.285796 -175.121515 -51.855430 2.751327 8.506165 73.191391 -4.051656 6.767683 21.454558 -0.003095 0.000000 7.029062 -1.466521 -1.188418 4.077219 -2.890686 -2.427983 3.758984 -2.905419 -2.410495 8.624323 -9.262604 6.256950 -5.782927 2.410518 4.513924 172.191062 -73.403609 6.650976 5.312027 50.941247 11.616429 -47.898500 -14.601187 1.687050 5.013397 -9.064414 1.257633 -163.774930 79.014013 18.009983 -16.936659 -62.188570 -40.971137 -34.507033 14.487279 -1.290830 10.901131 3.836688 7.523383 
0.667941 0.000000 -239.495187 180.000000 -49.969476 180.000000 -4.724967 90.522005 0.416122 83.830432 -1.504882 178.691139 165.838606 5.875481 168.520061 -22.887269 4.018783 -16.201947 88.891231 10.046542 -5.496372 21.454556 0.003109 0.000018 141.720654 7.164807 -174.203932 -49.034886 2.822036 8.089114 73.052825 -3.822794 6.534394 21.454557 -0.003094 -0.000000 6.992722 -1.461793 -1.237762 4.005637 -2.880306 -2.525610 3.687431 -2.895637 -2.508183 8.740643 -9.213388 6.168095 -5.754262 2.371298 4.450993 171.932319 -73.492789 6.913657 5.288687 50.937546 11.313886 -48.344225 -14.497447 1.694547 4.736318 -8.754288 1.854365 -163.890995 79.066975 17.891930 -17.121684 -62.894944 -40.873160 -35.042058 14.684017 -1.315714 10.618010 4.703632 6.560745 
0.233038 0.000000 -238.994995 180.000000 -50.005178 180.000000 -4.810195 90.506050 0.364071 83.637573 -1.543108 178.653596 166.105119 5.983513 168.530615 -22.740666 4.067730 -16.210477 89.153639 10.040903 -5.613127 21.454560 0.003108 0.000018 141.831213 7.005909 -173.026573 -45.989483 2.731630 7.739357 72.905541 -3.630376 6.323529 21.454555 -0.003093 0.000000 6.957852 -1.450785 -1.284532 3.936752 -2.857488 -2.617921 3.618588 -2.873383 -2.600625 8.802792 -9.151117 6.079048 -5.677589 2.361900 4.377405 171.685068 -73.595305 7.163939 5.231852 51.045616 11.004193 -48.685980 -14.379365 1.697046 4.595929 -8.638822 2.194373 -163.835937 79.116684 17.947999 -17.298510 -63.547375 -40.833399 -35.403489 14.859051 -1.335325 10.551681 5.816823 5.164769 
-0.217581 0.000000 -238.501482 180.000000 -50.077779 180.000000 -4.885380 90.498632 0.309936 83.444063 -1.578684 178.655352 166.402818 6.063302 168.602187 -22.554796 4.059829 -16.197826 89.392645 10.026191 -5.704944 21.454559 0.003108 0.000017 142.113705 6.801525 -171.584632 -42.749723 2.469740 7.454205 72.820796 -3.521043 5.990711 21.454552 -0.003093 0.000000 6.922206 -1.436806 -1.329109 3.866153 -2.828895 -2.705743 3.548028 -2.845317 -2.688616 8.820549 -9.070691 5.990561 -5.540663 2.403735 4.290416 171.361145 -73.704760 7.492262 5.142921 51.223380 10.877817 -48.889446 -14.370060 1.702664 4.625582 -8.573720 2.083882 -163.682743 79.138491 18.103727 -17.369420 -64.102893 -40.900966 -35.530779 15.062327 -1.351445 10.789356 6.757908 3.272415 
-0.680390 0.000000 -238.013123 180.000000 -50.187326 180.000000 -4.951890 90.498177 0.257430 83.253653 -1.599051 178.706101 166.731092 6.110106 168.690018 -22.329480 4.031007 -16.135910 89.620885 9.982469 -5.776638 21.454558 0.003110 0.000017 142.571114 6.552400 -169.940803 -39.336329 2.109814 7.133062 72.719015 -3.436263 5.492288 21.454553 -0.003093 0.000000 6.886555 -1.417525 -1.374171 3.795400 -2.789743 -2.794364 3.477312 -2.806695 -2.777474 8.817535 -8.967425 5.906870 -5.389468 2.483538 4.200238 170.978991 -73.813290 7.880005 5.048175 51.453194 10.904876 -48.992314 -14.442503 1.710953 4.732577 -8.557499 1.883418 -163.529084 79.133575 18.259971 -17.392111 -64.489469 -41.066770 -35.463065 15.213505 -1.359642 11.216870 7.463110 1.569808 
-1.152917 0.000000 -237.528482 180.000000 -50.333985 180.000000 -5.012182 90.499220 0.209145 83.069898 -1.599636 178.810777 167.076457 6.126544 168.733903 -22.088086 4.023964 -15.993161 89.856063 9.886686 -5.839656 21.454557 0.003115 0.000018 143.196473 6.266655 -168.219317 -35.788479 1.746491 6.694498 72.523470 -3.299419 4.881040 21.454556 -0.003093 0.000000 6.851920 -1.391887 -1.422193 3.726577 -2.737798 -2.888728 3.408527 -2.755324 -2.872155 8.814168 -8.841601 5.829874 -5.271498 2.581610 4.115084 170.584742 -73.908712 8.280417 4.974037 51.715585 11.019605 -49.034820 -14.535578 1.718562 4.803619 -8.620385 1.948721 -163.480620 79.111779 18.309396 -17.423143 -64.649556 -41.304695 -35.257771 15.215936 -1.355137 11.661235 7.954421 0.714284 
-1.634572 0.000000 -237.046315 180.000000 -50.517022 180.000000 -5.059600 90.479362 0.166572 82.895833 -1.634911 178.960202 167.394112 6.151702 168.766024 -21.941144 4.015546 -15.802433 90.126476 9.757502 -5.919452 21.454558 0.003118 0.000019 143.926838 5.980898 -166.722882 -32.235200 1.433195 6.204242 72.322816 -3.059775 4.496839 21.454557 -0.003092 0.000000 6.817355 -1.369570 -1.472542 3.658003 -2.692472 -2.987888 3.339994 -2.710600 -2.971591 8.804238 -8.713200 5.748468 -5.182336 2.687939 4.022830 170.224009 -73.962209 8.647945 4.923454 51.959748 11.233271 -48.996013 -14.601886 1.721667 4.767119 -8.772364 2.063159 -163.650880 79.091085 18.135986 -17.335859 -64.612317 -41.602342 -34.945586 15.038273 -1.336408 11.858258 8.306682 0.509889 
-2.126602 0.000000 -236.566262 180.000000 -50.735338 180.000000 -5.088809 90.421044 0.129841 82.734301 -1.751908 179.139483 167.653548 6.217120 168.829120 -21.970715 3.977243 -15.602490 90.453139 9.618689 -6.035860 21.454559 0.003117 0.000019 144.692510 5.725051 -165.711846 -28.838509 1.153029 5.750435 72.221948 -2.692149 4.622574 21.454552 -0.003091 -0.000000 6.781733 -1.359583 -1.521591 3.587579 -2.671941 -3.084865 3.269612 -2.690649 -3.068690 8.780355 -8.606391 5.647175 -5.108513 2.798180 3.904934 169.916714 -73.959850 8.962848 4.891466 52.151086 11.564341 -48.855336 -14.611489 1.717785 4.604852 -8.983595 1.974517 -164.070120 79.086114 17.708610 -17.025250 -64.430247 -41.941275 -34.547304 14.677903 -1.304065 11.643481 8.555033 0.674533 
-2.631047 0.000000 -236.088870 180.000000 -50.987995 180.000000 -5.107686 90.342987 0.099413 82.587753 -1.908778 179.322941 167.912223 6.289595 168.914253 -22.057138 3.920920 -15.390588 90.817111 9.471738 -6.172553 21.454560 0.003114 0.000018 145.434643 5.436490 -165.105726 -25.797488 0.693250 5.342707 72.215412 -2.263093 5.025176 21.454548 -0.003090 -0.000000 6.745106 -1.357525 -1.556892 3.515048 -2.667769 -3.154588 3.197105 -2.686894 -3.138435 8.757044 -8.542241 5.506244 -5.052181 2.920590 3.737374 169.569964 -73.962906 9.317981 4.865577 52.351172 11.983407 -48.654964 -14.590609 1.710099 4.466985 -9.087107 1.858322 -164.427978 79.092184 17.343995 -16.651344 -64.165240 -42.270352 -34.069795 14.182044 -1.261351 11.381767 8.497920 1.443227 
-3.149913 0.000000 -235.615349 180.000000 -51.273545 180.000000 -5.124613 90.267838 0.075094 82.461970 -2.048906 179.486793 168.230994 6.321764 169.008940 -22.077735 3.858650 -15.159771 91.194984 9.315293 -6.310184 21.454558 0.003112 0.000019 146.109854 5.041994 -164.822585 -23.298976 -0.097102 5.006364 72.206573 -1.911553 5.316102 21.454550 -0.003091 0.000000 6.708503 -1.355773 -1.566498 3.442006 -2.665003 -3.172913 3.124054 -2.684246 -3.156775 8.751148 -8.534965 5.312297 -5.013312 3.068056 3.502633 169.104833 -74.022738 9.792100 4.830273 52.611200 12.458008 -48.435413 -14.564941 1.701526 4.488209 -8.945886 1.918513 -164.427429 79.104758 17.345175 -16.377442 -63.877207 -42.552568 -33.519645 13.611345 -1.212224 11.431231 7.942452 3.009346 
